<svg width="43" height="38" viewBox="0 0 43 38" fill="none" xmlns="http://www.w3.org/2000/svg">
<path d="M9.02328 35.0312C7.64257 34.9844 6.33263 34.4791 5.35498 33.6162C4.37732 32.7533 3.80386 31.5964 3.74907 30.3762L3.70203 29.6875H39.3114L39.2644 30.3228C39.2243 31.5543 38.6556 32.7262 37.6736 33.6006C36.6916 34.475 35.3699 34.9865 33.9767 35.0312H9.02328Z" fill="#E09742"/>
<path d="M6.38281 29.6875C6.01312 29.6883 5.64687 29.6247 5.30498 29.5004C4.9631 29.3761 4.65226 29.1935 4.39022 28.963C4.12819 28.7326 3.92009 28.4588 3.7778 28.1572C3.63551 27.8557 3.56182 27.5323 3.56094 27.2056V27.1166C3.56093 26.7894 3.63397 26.4654 3.77587 26.1631C3.91776 25.8609 4.12573 25.5864 4.38785 25.3553C4.64997 25.1242 4.96111 24.9411 5.30343 24.8164C5.64576 24.6917 6.01255 24.628 6.38281 24.6287H22.2323L26.2031 27.7934C26.3104 27.8786 26.4486 27.927 26.5928 27.93C26.7405 27.9249 26.8822 27.8769 26.9959 27.7934L30.9734 24.6228H36.6172C36.9874 24.622 37.3542 24.6858 37.6966 24.8105C38.0389 24.9352 38.35 25.1183 38.6121 25.3494C38.8743 25.5805 39.0822 25.855 39.2241 26.1572C39.366 26.4594 39.4391 26.7834 39.4391 27.1106V27.1997C39.4391 27.5269 39.366 27.8509 39.2241 28.1531C39.0822 28.4553 38.8743 28.7298 38.6121 28.9609C38.35 29.192 38.0389 29.3752 37.6966 29.4998C37.3542 29.6245 36.9874 29.6883 36.6172 29.6875H6.38281ZM6.38281 22.99C5.63557 22.99 4.91883 22.7281 4.38982 22.2617C3.8608 21.7953 3.56272 21.1625 3.56094 20.5022V20.4131C3.56272 19.7528 3.8608 19.12 4.38982 18.6536C4.91883 18.1872 5.63557 17.9253 6.38281 17.9253H36.6172C37.3644 17.9253 38.0812 18.1872 38.6102 18.6536C39.1392 19.12 39.4373 19.7528 39.4391 20.4131V20.5022C39.4373 21.1625 39.1392 21.7953 38.6102 22.2617C38.0812 22.7281 37.3644 22.99 36.6172 22.99H6.38281Z" fill="#C61E24"/>
<path d="M22.2391 24.6228H4.95172V22.9781H38.0483V24.6228H30.9869L26.613 28.1081L22.2391 24.6228Z" fill="#E5E04F"/>
<path d="M33.7819 22.6813C33.2115 22.6819 32.6467 22.5819 32.1206 22.3871C31.5946 22.1924 31.1177 21.9068 30.7181 21.5472C30.3167 21.1869 29.8383 20.9008 29.3106 20.7054C28.7828 20.5101 28.2164 20.4095 27.6443 20.4095C27.0722 20.4095 26.5058 20.5101 25.978 20.7054C25.4503 20.9008 24.9718 21.1869 24.5705 21.5472C24.1701 21.9076 23.6922 22.1935 23.1649 22.3883C22.6375 22.583 22.0715 22.6826 21.5 22.6813C20.8671 22.689 20.241 22.5649 19.6725 22.3191C19.2304 22.1069 18.8177 21.8498 18.443 21.5531C18.0416 21.1897 17.562 20.9011 17.0323 20.7042C16.5026 20.5074 15.9337 20.4064 15.3591 20.4072C14.7872 20.4038 14.2205 20.5025 13.6929 20.6973C13.1653 20.8922 12.6876 21.1792 12.2886 21.5412C11.889 21.901 11.4122 22.1868 10.8861 22.3819C10.3601 22.577 9.79533 22.6774 9.22484 22.6774C8.65436 22.6774 8.0896 22.577 7.56356 22.3819C7.03751 22.1868 6.56074 21.901 6.16109 21.5412C5.61538 21.0731 4.95244 20.7252 4.22609 20.5259C4.14072 20.5013 4.05303 20.4834 3.96406 20.4725L3.41313 20.3775V19.8787C3.3882 19.3838 3.54879 18.8954 3.87 18.4894C4.03875 18.2948 4.25826 18.1392 4.50979 18.0358C4.76132 17.9324 5.03742 17.8843 5.31453 17.8956H35.1323C35.3742 17.8956 35.6363 17.8956 35.9588 17.8956H37.6788C37.9567 17.8853 38.2334 17.9338 38.4858 18.0371C38.7382 18.1404 38.9591 18.2954 39.13 18.4894C39.4461 18.8973 39.6041 19.3848 39.5802 19.8787V20.3775L39.0292 20.4725C38.9584 20.48 38.8886 20.4939 38.8209 20.5141C38.0787 20.7082 37.4009 21.0587 36.8456 21.5353C36.4462 21.896 35.9697 22.1831 35.4438 22.3798C34.9179 22.5765 34.353 22.679 33.7819 22.6813V22.6813Z" fill="#88A50F"/>
<path d="M6.34922 17.9194H5.33469C5.08593 17.9227 4.83951 17.8764 4.61382 17.7839C4.38814 17.6914 4.189 17.555 4.03125 17.385C3.87688 17.2151 3.76478 17.0184 3.70226 16.8076C3.63975 16.5969 3.62822 16.3768 3.66844 16.1619C4.43079 12.4801 6.63 9.15119 9.88324 6.75457C13.1365 4.35795 17.2378 3.04539 21.4731 3.04539C25.7085 3.04539 29.8098 4.35795 33.063 6.75457C36.3163 9.15119 38.5155 12.4801 39.2778 16.1619C39.3267 16.3725 39.3244 16.59 39.2711 16.7998C39.2178 17.0096 39.1148 17.207 38.9688 17.3791C38.8117 17.5487 38.6138 17.6853 38.3895 17.7788C38.1652 17.8722 37.9201 17.9203 37.672 17.9194H6.34922Z" fill="#E09742"/>
<path d="M16.5147 9.5C16.52 9.33434 16.5804 9.17372 16.6884 9.03823C16.7964 8.90274 16.9472 8.79838 17.1219 8.73819C17.2966 8.678 17.4875 8.66466 17.6708 8.69982C17.8541 8.73499 18.0215 8.8171 18.1523 8.93591C18.2831 9.05471 18.3713 9.20493 18.406 9.3678C18.4407 9.53067 18.4203 9.69897 18.3473 9.85165C18.2744 10.0043 18.1522 10.1346 17.9959 10.2263C17.8396 10.3179 17.6563 10.3668 17.4688 10.3669C17.3417 10.3653 17.2162 10.3417 17.0995 10.2973C16.9828 10.2529 16.8771 10.1886 16.7885 10.1081C16.6999 10.0276 16.6302 9.93245 16.5832 9.82811C16.5362 9.72378 16.5129 9.61228 16.5147 9.5ZM25.5313 10.3669C25.7245 10.3704 25.9145 10.3231 26.0772 10.2309C26.2399 10.1387 26.3678 10.0059 26.4449 9.84928C26.5219 9.69266 26.5445 9.51933 26.5097 9.35134C26.475 9.18335 26.3845 9.02828 26.2498 8.90586C26.115 8.78344 25.9421 8.69919 25.7531 8.66384C25.564 8.62848 25.3673 8.64361 25.188 8.7073C25.0087 8.771 24.8549 8.88037 24.7461 9.02153C24.6374 9.16268 24.5786 9.32923 24.5772 9.5C24.5745 9.61249 24.5972 9.72433 24.6438 9.82902C24.6905 9.93371 24.7602 10.0292 24.849 10.1098C24.9378 10.1905 25.0438 10.2547 25.1609 10.2989C25.2781 10.343 25.4039 10.3661 25.5313 10.3669V10.3669ZM13.4375 13.3356C13.6288 13.338 13.8166 13.2901 13.9772 13.1981C14.1377 13.1061 14.2638 12.9741 14.3395 12.8188C14.4152 12.6635 14.437 12.4918 14.4023 12.3255C14.3676 12.1593 14.2778 12.0058 14.1444 11.8846C14.011 11.7634 13.8399 11.6798 13.6528 11.6445C13.4656 11.6092 13.2709 11.6238 13.0931 11.6863C12.9153 11.7488 12.7625 11.8565 12.654 11.9958C12.5455 12.1351 12.4861 12.2997 12.4834 12.4688C12.4789 12.5822 12.5003 12.6953 12.5461 12.8014C12.5919 12.9075 12.6614 13.0044 12.7504 13.0863C12.8393 13.1682 12.9459 13.2335 13.064 13.2784C13.182 13.3233 13.309 13.3468 13.4375 13.3475V13.3356ZM29.5625 13.3356C29.7538 13.338 29.9416 13.2901 30.1022 13.1981C30.2627 13.1061 30.3888 12.9741 30.4645 12.8188C30.5402 12.6635 30.562 12.4918 30.5273 12.3255C30.4926 12.1593 30.4028 12.0058 30.2694 11.8846C30.136 11.7634 29.9649 11.6798 29.7778 11.6445C29.5906 11.6092 29.3959 11.6238 29.2181 11.6863C29.0403 11.7488 28.8875 11.8565 28.779 11.9958C28.6705 12.1351 28.6111 12.2997 28.6084 12.4688C28.6039 12.5822 28.6252 12.6953 28.6711 12.8014C28.7169 12.9075 28.7864 13.0044 28.8753 13.0863C28.9643 13.1682 29.0709 13.2335 29.189 13.2784C29.307 13.3233 29.434 13.3468 29.5625 13.3475V13.3356ZM21.5 13.3356C21.6913 13.338 21.8791 13.2901 22.0397 13.1981C22.2002 13.1061 22.3263 12.9741 22.402 12.8188C22.4777 12.6635 22.4995 12.4918 22.4648 12.3255C22.4301 12.1593 22.3403 12.0058 22.2069 11.8846C22.0735 11.7634 21.9024 11.6798 21.7153 11.6445C21.5281 11.6092 21.3334 11.6238 21.1556 11.6863C20.9778 11.7488 20.825 11.8565 20.7165 11.9958C20.608 12.1351 20.5486 12.2997 20.5459 12.4688C20.5414 12.5822 20.5627 12.6953 20.6086 12.8014C20.6544 12.9075 20.7239 13.0044 20.8128 13.0863C20.9018 13.1682 21.0084 13.2335 21.1265 13.2784C21.2445 13.3233 21.3715 13.3468 21.5 13.3475V13.3356ZM38.7134 22.9009C38.717 22.9266 38.717 22.9525 38.7134 22.9781V24.6466C39.1466 24.9316 39.4981 25.3025 39.7397 25.7294C39.9812 26.1564 40.1061 26.6274 40.1042 27.1047V27.1997C40.1055 27.92 39.8201 28.6178 39.298 29.1709C39.4827 29.2287 39.6427 29.3356 39.7558 29.4771C39.8689 29.6185 39.9296 29.7874 39.9295 29.9606C39.9295 33.0659 37.242 35.5894 33.97 35.5894H9.02328C5.73781 35.5894 3.06375 33.0659 3.06375 29.9606C3.06366 29.7874 3.12436 29.6185 3.23747 29.4771C3.35058 29.3356 3.51054 29.2287 3.69531 29.1709C3.17317 28.6178 2.88777 27.92 2.88906 27.1997V27.1047C2.88722 26.6274 3.01209 26.1564 3.25363 25.7294C3.49518 25.3025 3.84666 24.9316 4.27985 24.6466V22.9781C4.27626 22.9525 4.27626 22.9266 4.27985 22.9009C3.97385 22.682 3.71448 22.4166 3.51391 22.1172C3.26085 21.7793 3.09564 21.396 3.03016 20.995C2.85301 20.6489 2.75265 20.276 2.73453 19.8966C2.68449 19.2585 2.89683 18.626 3.3325 18.1153C3.41947 18.0151 3.51614 17.9217 3.62141 17.8363C3.58781 17.8363 3.56094 17.7769 3.52735 17.7472C3.30515 17.5129 3.14418 17.2382 3.05592 16.9426C2.96766 16.647 2.95427 16.3379 3.01672 16.0372C3.79507 12.2073 6.07208 8.74108 9.44958 6.24462C12.8271 3.74816 17.0901 2.38034 21.4933 2.38034C25.8964 2.38034 30.1595 3.74816 33.537 6.24462C36.9145 8.74108 39.1915 12.2073 39.9698 16.0372C40.0323 16.3379 40.0189 16.647 39.9306 16.9426C39.8424 17.2382 39.6814 17.5129 39.4592 17.7472C39.4256 17.7769 39.3988 17.8125 39.3652 17.8363C39.4704 17.9217 39.5671 18.0151 39.6541 18.1153C40.0897 18.626 40.3021 19.2585 40.252 19.8966C40.2339 20.276 40.1336 20.6489 39.9564 20.995C39.8909 21.396 39.7257 21.7793 39.4727 22.1172C39.2741 22.4161 39.017 22.6815 38.7134 22.9009V22.9009ZM4.56203 17.005C4.65416 17.1079 4.77166 17.1907 4.90557 17.2473C5.03948 17.3039 5.18626 17.3327 5.33469 17.3316H37.6653C37.8137 17.3327 37.9605 17.3039 38.0944 17.2473C38.2283 17.1907 38.3458 17.1079 38.438 17.005C38.5324 16.9024 38.6006 16.7829 38.6377 16.6548C38.6748 16.5266 38.68 16.3929 38.653 16.2628C37.9292 12.7081 35.8148 9.4913 32.6794 7.17454C29.544 4.85779 25.587 3.58849 21.5 3.58849C17.413 3.58849 13.456 4.85779 10.3206 7.17454C7.18518 9.4913 5.07081 12.7081 4.34703 16.2628C4.31999 16.3929 4.32521 16.5266 4.36233 16.6548C4.39945 16.7829 4.46759 16.9024 4.56203 17.005V17.005ZM38.5791 30.3109H4.42094C4.46236 31.3802 4.95975 32.3961 5.81333 33.1548C6.66692 33.9136 7.81357 34.359 9.02328 34.4019H33.9767C35.1864 34.359 36.3331 33.9136 37.1867 33.1548C38.0403 32.3961 38.5376 31.3802 38.5791 30.3109V30.3109ZM36.6172 25.2106H31.2422L27.4528 28.2388C27.2211 28.4223 26.9208 28.5239 26.6096 28.5239C26.2984 28.5239 25.9981 28.4223 25.7664 28.2388L21.9703 25.2106H6.38281C5.81376 25.2106 5.26792 25.41 4.86491 25.765C4.46189 26.1201 4.23459 26.6018 4.23281 27.1047V27.1997C4.23459 27.7026 4.46189 28.1843 4.86491 28.5394C5.26792 28.8944 5.81376 29.0938 6.38281 29.0938H36.6172C37.1862 29.0938 37.7321 28.8944 38.1351 28.5394C38.5381 28.1843 38.7654 27.7026 38.7672 27.1997V27.1047C38.7654 26.6018 38.5381 26.1201 38.1351 25.765C37.7321 25.41 37.1862 25.2106 36.6172 25.2106V25.2106ZM5.6236 23.5719V24.0231H22.4944L23.9859 25.2106L26.613 27.3125L29.24 25.2106L30.7316 24.0231H37.3764V23.5719H5.6236ZM18.5438 22.3844C18.3489 22.2656 18.1675 22.1231 17.9928 21.9984C17.6533 21.683 17.2447 21.4318 16.792 21.2602C16.3392 21.0885 15.8517 21 15.3591 21C14.8664 21 14.3789 21.0885 13.9261 21.2602C13.4734 21.4318 13.0648 21.683 12.7253 21.9984C12.5506 22.1231 12.3692 22.2656 12.1744 22.3844H18.5438ZM30.8256 22.3844C30.6308 22.2656 30.4494 22.1231 30.2747 21.9984C29.9352 21.683 29.5266 21.4318 29.0739 21.2602C28.6211 21.0885 28.1336 21 27.6409 21C27.1483 21 26.6608 21.0885 26.208 21.2602C25.7553 21.4318 25.3467 21.683 25.0072 21.9984C24.8325 22.1231 24.6511 22.2656 24.4563 22.3844H30.8256ZM38.4917 21.2503C38.0525 21.4507 37.6458 21.7024 37.2823 21.9984C37.1077 22.1231 36.9263 22.2597 36.7381 22.3784C37.1171 22.344 37.4791 22.2215 37.7871 22.0234C38.0951 21.8252 38.3382 21.5585 38.4917 21.2503V21.2503ZM6.24172 22.3784C6.0536 22.2597 5.87219 22.1231 5.6975 21.9984C5.33408 21.7024 4.92732 21.4507 4.48813 21.2503C4.64328 21.5609 4.8895 21.8293 5.20134 22.0276C5.51318 22.2259 5.87932 22.3471 6.26188 22.3784H6.24172ZM38.9083 19.8906C38.9267 19.5238 38.8164 19.1609 38.5925 18.8516C38.48 18.7339 38.3369 18.6421 38.1754 18.5842C38.0138 18.5262 37.8388 18.5039 37.6653 18.5191H5.33469C5.16122 18.5039 4.98618 18.5262 4.82465 18.5842C4.66312 18.6421 4.51996 18.7339 4.4075 18.8516C4.18357 19.1609 4.07327 19.5238 4.09172 19.8906C4.19922 19.8906 4.3 19.9322 4.39406 19.9619C5.21384 20.1786 5.96425 20.563 6.58438 21.0841C6.92499 21.3989 7.33428 21.6495 7.78752 21.8208C8.24076 21.992 8.72857 22.0802 9.22149 22.0802C9.7144 22.0802 10.2022 21.992 10.6555 21.8208C11.1087 21.6495 11.518 21.3989 11.8586 21.0841C12.7906 20.2697 14.0484 19.8129 15.3591 19.8129C16.6697 19.8129 17.9275 20.2697 18.8595 21.0841C19.1976 21.3542 19.5696 21.5892 19.9681 21.7847C20.4437 21.9926 20.9696 22.0945 21.5 22.0816C21.9937 22.0825 22.4825 21.9945 22.9364 21.823C23.3904 21.6515 23.8001 21.4001 24.1405 21.0841C25.0725 20.2697 26.3303 19.8129 27.6409 19.8129C28.9516 19.8129 30.2094 20.2697 31.1414 21.0841C31.482 21.3989 31.8913 21.6495 32.3446 21.8208C32.7978 21.992 33.2856 22.0802 33.7785 22.0802C34.2714 22.0802 34.7592 21.992 35.2125 21.8208C35.6657 21.6495 36.075 21.3989 36.4156 21.0841C37.0358 20.563 37.7862 20.1786 38.6059 19.9619C38.7 19.9322 38.8008 19.9144 38.9083 19.8906Z" fill="black"/>
</svg>
