<svg width="243" height="243" viewBox="0 0 243 243" fill="none" xmlns="http://www.w3.org/2000/svg">
<g filter="url(#filter0_d)">
<path d="M99.3709 62.7328C101.873 62.7329 104.273 61.7451 106.051 59.9843C107.828 58.2235 108.84 55.832 108.863 53.3301C108.887 50.8281 107.921 48.4184 106.177 46.6243C104.433 44.8303 102.052 43.7974 99.5508 43.7503" stroke="#FAA41A" stroke-width="3" stroke-linecap="round" stroke-linejoin="round"/>
<path d="M98.5561 81.6231C96.054 81.6232 93.6539 80.6354 91.8763 78.8746C90.0988 77.1138 89.0875 74.7223 89.0639 72.2204C89.0403 69.7184 90.0062 67.3087 91.7503 65.5146C93.4943 63.7206 95.8747 62.6877 98.3763 62.6406" stroke="#FAA41A" stroke-width="3" stroke-linecap="round" stroke-linejoin="round"/>
<path d="M137.34 62.7328C139.842 62.7329 142.242 61.7451 144.019 59.9843C145.797 58.2235 146.808 55.832 146.832 53.3301C146.855 50.8281 145.89 48.4184 144.145 46.6243C142.401 44.8303 140.021 43.7974 137.519 43.7503M99.3709 100.607C101.873 100.608 104.273 99.6198 106.051 97.859C107.828 96.0982 108.84 93.7067 108.863 91.2047C108.887 88.7028 107.921 86.293 106.177 84.499C104.433 82.705 102.052 81.6721 99.5507 81.6249L99.3709 100.607Z" stroke="#FAA41A" stroke-width="3" stroke-linecap="round" stroke-linejoin="round"/>
<path d="M136.525 81.6231C134.023 81.6232 131.623 80.6354 129.845 78.8746C128.068 77.1138 127.056 74.7223 127.033 72.2204C127.009 69.7184 127.975 67.3087 129.719 65.5146C131.463 63.7206 133.843 62.6877 136.345 62.6406" stroke="#FAA41A" stroke-width="3" stroke-linecap="round" stroke-linejoin="round"/>
<path d="M64.3425 62.7328C66.8446 62.7329 69.2447 61.7451 71.0223 59.9843C72.7999 58.2235 73.8111 55.832 73.8347 53.3301C73.8583 50.8281 72.8924 48.4184 71.1483 46.6243C69.4043 44.8303 67.0239 43.7974 64.5224 43.7503M137.34 100.607C139.842 100.608 142.242 99.6198 144.019 97.859C145.797 96.0982 146.808 93.7067 146.832 91.2047C146.855 88.7028 145.89 86.293 144.145 84.499C142.401 82.705 140.021 81.6721 137.519 81.6249L137.34 100.607Z" stroke="#FAA41A" stroke-width="3" stroke-linecap="round" stroke-linejoin="round"/>
<path d="M63.5295 81.6231C61.0276 81.623 58.6271 80.6349 56.8497 78.8742C55.0723 77.1134 54.0609 74.7222 54.0373 72.2204C54.0137 69.7184 54.9796 67.3087 56.7237 65.5146C58.4677 63.7206 60.8499 62.6877 63.3515 62.6406" stroke="#FAA41A" stroke-width="3" stroke-linecap="round" stroke-linejoin="round"/>
<path d="M64.3426 100.607C66.8446 100.608 69.2448 99.6198 71.0224 97.859C72.7999 96.0982 73.8112 93.7067 73.8348 91.2047C73.8584 88.7028 72.8924 86.293 71.1484 84.499C69.4044 82.705 67.024 81.6721 64.5224 81.6249" stroke="#FAA41A" stroke-width="3" stroke-linecap="round" stroke-linejoin="round"/>
<path d="M227.108 75.3364C227.108 85.0404 220.373 92.9076 212.065 92.9076C203.758 92.9076 197.024 85.0404 197.024 75.3364C197.024 65.6316 203.758 50.3105 212.065 50.3105C220.373 50.3105 227.108 65.6316 227.108 75.3364Z" fill="#FAA41A" stroke="#383747" stroke-width="3" stroke-linecap="round" stroke-linejoin="round"/>
<path d="M68.0435 199.252H136.374V176.656C121.812 183.081 113.331 184.084 101.533 184.327C86.7769 184.631 77.7313 179.685 69 177.5L68.0435 199.252ZM211.946 97.1017C204.808 119.165 206.815 147.324 204.516 172.612C204.516 184.248 219.616 183.858 219.616 172.612C217.293 147.498 220.923 122.785 211.946 97.1017Z" stroke="#383747" stroke-width="3" stroke-linecap="round" stroke-linejoin="round"/>
<path d="M188.422 117.436C175.656 165.078 126.686 193.35 79.0447 180.585C48.2263 172.327 24.155 148.255 15.8976 117.436H188.422Z" fill="#FAA41A" stroke="#383747" stroke-width="3" stroke-linecap="round" stroke-linejoin="round"/>
<path d="M162.867 132.873C157.489 149.27 143.099 160.668 126.391 163.763" stroke="white" stroke-linecap="round" stroke-linejoin="round"/>
</g>
<defs>
<filter id="filter0_d" x="-4" y="0" width="251" height="251" filterUnits="userSpaceOnUse" color-interpolation-filters="sRGB">
<feFlood flood-opacity="0" result="BackgroundImageFix"/>
<feColorMatrix in="SourceAlpha" type="matrix" values="0 0 0 0 0 0 0 0 0 0 0 0 0 0 0 0 0 0 127 0"/>
<feOffset dy="4"/>
<feGaussianBlur stdDeviation="2"/>
<feColorMatrix type="matrix" values="0 0 0 0 0 0 0 0 0 0 0 0 0 0 0 0 0 0 0.25 0"/>
<feBlend mode="normal" in2="BackgroundImageFix" result="effect1_dropShadow"/>
<feBlend mode="normal" in="SourceGraphic" in2="effect1_dropShadow" result="shape"/>
</filter>
</defs>
</svg>
